<?xml version="1.0" encoding="utf-8"?>
<!-- Generator: Adobe Illustrator 21.1.0, SVG Export Plug-In . SVG Version: 6.00 Build 0)  -->
<svg version="1.1" id="Слой_1" xmlns="http://www.w3.org/2000/svg" xmlns:xlink="http://www.w3.org/1999/xlink" x="0px" y="0px"
	 viewBox="0 0 100 100" style="enable-background:new 0 0 100 100;" xml:space="preserve">
<style type="text/css">
	.st0{fill:none;stroke:#008AD6;stroke-width:4;stroke-miterlimit:10;}
</style>
<circle class="st0" cx="50" cy="50" r="40"/>
<path class="st0" d="M20,25c0,0,10,10,30,10s30-10,30-10"/>
<path class="st0" d="M20,75c0,0,10-10,30-10s30,10,30,10"/>
<line class="st0" x1="10" y1="50" x2="90" y2="50"/>
<path class="st0" d="M45,90c0,0-15-15-15-40s15-40,15-40"/>
<path class="st0" d="M55,90c0,0,15-15,15-40S55,10,55,10"/>
<line class="st0" x1="50" y1="90" x2="50" y2="10"/>
</svg>
